# ProBuilder 6.0.7
# https://unity3d.com/unity/features/worldbuilding/probuilder
# 12/12/2025 10:07:51

mtllib ./proBuilder_crypt.mtl
o proBuilder_crypt

g Cube
v -8 0 -2
v -10 0 -2
v -8 6 -2
v -10 6 -2
v -10 0 -4
v -10 6 -4
v -8 0 -4
v -8 6 -4

vt 2 -5
vt 0 -5
vt 2 1
vt 0 1
vt 0 -1
vt 2 -1

vn 0 -2.220446E-17 1
vn -1 0 0
vn 0 2.220446E-17 -1
vn 1 0 0
vn 0 1 2.220446E-17
vn 0 -1 -2.220446E-17

usemtl ProBuilderDefault
f 3/3/1 4/4/1 2/2/1 1/1/1
f 4/3/2 6/4/2 5/2/2 2/1/2
f 6/3/3 8/4/3 7/2/3 5/1/3
f 8/3/4 3/4/4 1/2/4 7/1/4
f 8/5/5 6/6/5 4/3/5 3/4/5
f 1/3/6 2/4/6 5/5/6 7/6/6

g Cube (4)
v -8 0 4
v -10 0 4
v -8 6 4
v -10 6 4
v -10 0 2
v -10 6 2
v -8 0 2
v -8 6 2

vt 2 -5
vt 0 -5
vt 2 1
vt 0 1
vt 0 -1
vt 2 -1

vn 0 -2.220446E-17 1
vn -1 0 0
vn 0 2.220446E-17 -1
vn 1 0 0
vn 0 1 2.220446E-17
vn 0 -1 -2.220446E-17

usemtl ProBuilderDefault
f 11/9/7 12/10/7 10/8/7 9/7/7
f 12/9/8 14/10/8 13/8/8 10/7/8
f 14/9/9 16/10/9 15/8/9 13/7/9
f 16/9/10 11/10/10 9/8/10 15/7/10
f 16/11/11 14/12/11 12/9/11 11/10/11
f 9/9/12 10/10/12 13/11/12 15/12/12

g Cube (2)
v 4 0 -2
v 2 0 -2
v 4 6 -2
v 2 6 -2
v 2 0 -4
v 2 6 -4
v 4 0 -4
v 4 6 -4

vt 2 -5
vt 0 -5
vt 2 1
vt 0 1
vt 0 -1
vt 2 -1

vn 0 -2.220446E-17 1
vn -1 0 0
vn 0 2.220446E-17 -1
vn 1 0 0
vn 0 1 2.220446E-17
vn 0 -1 -2.220446E-17

usemtl ProBuilderDefault
f 19/15/13 20/16/13 18/14/13 17/13/13
f 20/15/14 22/16/14 21/14/14 18/13/14
f 22/15/15 24/16/15 23/14/15 21/13/15
f 24/15/16 19/16/16 17/14/16 23/13/16
f 24/17/17 22/18/17 20/15/17 19/16/17
f 17/15/18 18/16/18 21/17/18 23/18/18

g Cube (5)
v 4 0 4
v 2 0 4
v 4 6 4
v 2 6 4
v 2 0 2
v 2 6 2
v 4 0 2
v 4 6 2

vt 2 -5
vt 0 -5
vt 2 1
vt 0 1
vt 0 -1
vt 2 -1

vn 0 -2.220446E-17 1
vn -1 0 0
vn 0 2.220446E-17 -1
vn 1 0 0
vn 0 1 2.220446E-17
vn 0 -1 -2.220446E-17

usemtl ProBuilderDefault
f 27/21/19 28/22/19 26/20/19 25/19/19
f 28/21/20 30/22/20 29/20/20 26/19/20
f 30/21/21 32/22/21 31/20/21 29/19/21
f 32/21/22 27/22/22 25/20/22 31/19/22
f 32/23/23 30/24/23 28/21/23 27/22/23
f 25/21/24 26/22/24 29/23/24 31/24/24

g Cube (1)
v -2 0 -2
v -4 0 -2
v -2 6 -2
v -4 6 -2
v -4 0 -4
v -4 6 -4
v -2 0 -4
v -2 6 -4

vt 2 -5
vt 0 -5
vt 2 1
vt 0 1
vt 0 -1
vt 2 -1

vn 0 -2.220446E-17 1
vn -1 0 0
vn 0 2.220446E-17 -1
vn 1 0 0
vn 0 1 2.220446E-17
vn 0 -1 -2.220446E-17

usemtl ProBuilderDefault
f 35/27/25 36/28/25 34/26/25 33/25/25
f 36/27/26 38/28/26 37/26/26 34/25/26
f 38/27/27 40/28/27 39/26/27 37/25/27
f 40/27/28 35/28/28 33/26/28 39/25/28
f 40/29/29 38/30/29 36/27/29 35/28/29
f 33/27/30 34/28/30 37/29/30 39/30/30

g Cube (6)
v -2 0 4
v -4 0 4
v -2 6 4
v -4 6 4
v -4 0 2
v -4 6 2
v -2 0 2
v -2 6 2

vt 2 -5
vt 0 -5
vt 2 1
vt 0 1
vt 0 -1
vt 2 -1

vn 0 -2.220446E-17 1
vn -1 0 0
vn 0 2.220446E-17 -1
vn 1 0 0
vn 0 1 2.220446E-17
vn 0 -1 -2.220446E-17

usemtl ProBuilderDefault
f 43/33/31 44/34/31 42/32/31 41/31/31
f 44/33/32 46/34/32 45/32/32 42/31/32
f 46/33/33 48/34/33 47/32/33 45/31/33
f 48/33/34 43/34/34 41/32/34 47/31/34
f 48/35/35 46/36/35 44/33/35 43/34/35
f 41/33/36 42/34/36 45/35/36 47/36/36

g Cube (3)
v 10 0 -2
v 8 0 -2
v 10 6 -2
v 8 6 -2
v 8 0 -4
v 8 6 -4
v 10 0 -4
v 10 6 -4

vt 2 -5
vt 0 -5
vt 2 1
vt 0 1
vt 0 -1
vt 2 -1

vn 0 -2.220446E-17 1
vn -1 0 0
vn 0 2.220446E-17 -1
vn 1 0 0
vn 0 1 2.220446E-17
vn 0 -1 -2.220446E-17

usemtl ProBuilderDefault
f 51/39/37 52/40/37 50/38/37 49/37/37
f 52/39/38 54/40/38 53/38/38 50/37/38
f 54/39/39 56/40/39 55/38/39 53/37/39
f 56/39/40 51/40/40 49/38/40 55/37/40
f 56/41/41 54/42/41 52/39/41 51/40/41
f 49/39/42 50/40/42 53/41/42 55/42/42

g Cube (7)
v 10 0 4
v 8 0 4
v 10 6 4
v 8 6 4
v 8 0 2
v 8 6 2
v 10 0 2
v 10 6 2

vt 2 -5
vt 0 -5
vt 2 1
vt 0 1
vt 0 -1
vt 2 -1

vn 0 -2.220446E-17 1
vn -1 0 0
vn 0 2.220446E-17 -1
vn 1 0 0
vn 0 1 2.220446E-17
vn 0 -1 -2.220446E-17

usemtl ProBuilderDefault
f 59/45/43 60/46/43 58/44/43 57/43/43
f 60/45/44 62/46/44 61/44/44 58/43/44
f 62/45/45 64/46/45 63/44/45 61/43/45
f 64/45/46 59/46/46 57/44/46 63/43/46
f 64/47/47 62/48/47 60/45/47 59/46/47
f 57/45/48 58/46/48 61/47/48 63/48/48

g PolyShape
v -15 0 -3
v -15 -1.907349E-06 -6
v -11 0 -6
v -11 -1.907349E-06 -9
v -2 3.814697E-06 -9
v -2 0 -10
v 2 3.814697E-06 -10
v 2 5.722046E-06 -9
v 12 9.536743E-06 -9
v 12 1.144409E-05 -6
v 15 1.335144E-05 -6
v 15 0 -3
v 17 0 -3
v 17 0 3
v 15 0 3
v 15 0 6
v 12 0 6
v 12 0 9
v 2 0 9
v 2 0 10
v -2 0 10
v -2 0 9
v -12 0 9
v -12 1.907349E-06 6
v -15 0 6
v -15 0 3
v -17 1.907349E-06 3
v -17 1.907349E-06 -3
v 15 6 3.000001
v 17 6 3.000001
v 17 6 -2.999999
v 15 6 -2.999999
v 12 6 6.000001
v 12 6.000011 -5.999999
v 15 6.000013 -5.999999
v 2 6.000006 -8.999998
v 12 6.00001 -8.999998
v 2 6 9.000001
v -2.000001 6.000004 -8.999998
v -2.000001 6 -9.999998
v 2 6.000004 -9.999998
v -2.000001 6 9.000001
v 2 6 10
v -2.000001 6 10
v -11 6 -5.999999
v -11 5.999998 -8.999998
v -12 6.000002 6.000001
v -12 6 9.000001
v -15 6 3.000001
v -15 6 -2.999999
v -17 6.000002 3.000001
v -17 6.000002 -2.999999
v -15 5.999998 -5.999999
v -15 6 6.000001
v 12 6 9.000001
v 15 6 6.000001

vt 0 0
vt 1.949437E-13 -3
vt -4 -3
vt -4 -6
vt -13 -6
vt -13 -7
vt -17 -7
vt -17 -6
vt -27 -6
vt -27 -3
vt -30 -3
vt -30 6.903177E-13
vt -32 7.363389E-13
vt -32 6
vt -30 6
vt -30 9
vt -27 9
vt -27 12
vt -17 12
vt -17 13
vt -13 13
vt -13 12
vt -3 12
vt -3 9
vt 0 9
vt 0 6
vt 2 6
vt 2 -4.754376E-13
vt 30 6
vt 32 6
vt 32 7.647608E-13
vt 30 7.187396E-13
vt 27 9
vt 27 -3
vt 30 -3
vt 17 -6
vt 27 -6
vt 17 12
vt 13 -6
vt 13 -7
vt 17 -7
vt 13 12
vt 17 13
vt 13 13
vt 4 -3
vt 4 -6
vt 3 9
vt 3 12
vt -2 6
vt -2 -4.470159E-13
vt 27 12
vt 30 9
vt 6 0
vt 9 0
vt 6.000001 6
vt 9.000001 6
vt -27 1.430511E-06
vt -27 6.000001
vt 12 0
vt 12 6
vt -17 1.907349E-06
vt -17 6.000002
vt -9 0
vt -6 0
vt -9.000001 6
vt -6.000001 6
vt -3 3.33786E-06
vt -2.999999 6.000003
vt 4 -7.152557E-07
vt -6.132396E-07 5.999998
vt 3.999999 6
vt 3 -1.907349E-06
vt 2.999999 5.999998
vt -12 -3.576279E-07
vt -12 6
vt -13 1.907349E-06
vt -13 6.000002
vt 5.999999 5.999998
vt 13 2.384186E-06
vt 13 6.000002
vt -13 5.999998
vt 13 6
vt 17 2.145767E-06
vt 13 5.999999
vt 17 6.000002
vt -7 3.814697E-06
vt -6.999999 6.000004
vt -5.999999 6.000006
vt 7 -2.066294E-06
vt 5.999999 6.000002
vt 6.999999 5.999998
vt 27 8.106232E-06
vt 27 6.000008

vn 3.576279E-07 1 -1.589457E-07
vn 0 -1 0
vn -1 0 0
vn 0 1.589457E-07 -1
vn 1 1.022067E-07 0
vn 1.136868E-13 -2.384186E-07 1

usemtl ProBuilderDefault
f 81/65/49 80/64/49 79/63/49
f 83/67/49 82/66/49 81/65/49
f 88/72/49 90/74/49 89/73/49
f 65/49/49 67/51/49 66/50/49
f 91/75/49 65/49/49 92/76/49
f 91/75/49 90/74/49 65/49/49
f 67/51/49 65/49/49 90/74/49
f 88/72/49 67/51/49 90/74/49
f 86/70/49 88/72/49 87/71/49
f 67/51/49 88/72/49 86/70/49
f 69/53/49 68/52/49 67/51/49
f 67/51/49 86/70/49 69/53/49
f 84/68/49 86/70/49 85/69/49
f 84/68/49 83/67/49 86/70/49
f 69/53/49 86/70/49 83/67/49
f 72/56/49 71/55/49 70/54/49
f 72/56/49 70/54/49 69/53/49
f 83/67/49 72/56/49 69/53/49
f 83/67/49 81/65/49 72/56/49
f 74/58/49 73/57/49 72/56/49
f 81/65/49 74/58/49 72/56/49
f 76/60/49 75/59/49 74/58/49
f 74/58/49 81/65/49 76/60/49
f 81/65/49 79/63/49 76/60/49
f 79/63/49 77/61/49 76/60/49
f 79/63/49 78/62/49 77/61/49
f 95/79/50 94/78/50 93/77/50
f 96/80/50 95/79/50 93/77/50
f 96/80/50 93/77/50 97/81/50
f 96/80/50 97/81/50 98/82/50
f 98/82/50 99/83/50 96/80/50
f 100/84/50 98/82/50 97/81/50
f 100/84/50 101/85/50 98/82/50
f 100/84/50 97/81/50 102/86/50
f 103/87/50 100/84/50 102/86/50
f 103/87/50 104/88/50 100/84/50
f 104/88/50 105/89/50 100/84/50
f 102/86/50 106/90/50 103/87/50
f 106/90/50 102/86/50 107/91/50
f 108/92/50 106/90/50 107/91/50
f 103/87/50 106/90/50 109/93/50
f 109/93/50 110/94/50 103/87/50
f 106/90/50 111/95/50 109/93/50
f 112/96/50 111/95/50 106/90/50
f 113/74/50 109/93/50 111/95/50
f 113/74/50 114/49/50 109/93/50
f 114/49/50 113/74/50 115/97/50
f 116/98/50 114/49/50 115/97/50
f 117/50/50 109/93/50 114/49/50
f 118/73/50 113/74/50 111/95/50
f 97/81/50 119/99/50 102/86/50
f 93/77/50 120/100/50 97/81/50
f 80/102/51 120/104/51 93/103/51
f 93/103/51 79/101/51 80/102/51
f 81/105/52 97/106/52 120/63/52
f 120/63/52 80/60/52 81/105/52
f 82/107/51 119/108/51 97/104/51
f 97/104/51 81/102/51 82/107/51
f 83/109/52 102/110/52 119/106/52
f 119/106/52 82/105/52 83/109/52
f 90/112/53 113/114/53 118/113/53
f 118/113/53 89/111/53 90/112/53
f 89/49/52 118/74/52 111/116/52
f 111/116/52 88/115/52 89/49/52
f 67/117/54 109/119/54 117/118/54
f 117/118/54 66/49/54 67/117/54
f 66/120/53 117/121/53 114/74/53
f 114/74/53 65/49/53 66/120/53
f 65/49/54 114/74/54 116/97/54
f 116/97/54 92/98/54 65/49/54
f 92/49/53 116/74/53 115/114/53
f 115/114/53 91/112/53 92/49/53
f 91/76/52 115/75/52 113/74/52
f 113/74/52 90/49/52 91/76/52
f 88/111/53 111/113/53 112/123/53
f 112/123/53 87/122/53 88/111/53
f 87/115/52 112/116/52 106/125/52
f 106/125/52 86/124/52 87/115/52
f 68/101/53 110/126/53 109/121/53
f 109/121/53 67/120/53 68/101/53
f 69/127/54 103/128/54 110/119/54
f 110/119/54 68/117/54 69/127/54
f 86/122/53 106/123/53 108/129/53
f 108/129/53 85/124/53 86/122/53
f 85/124/52 108/125/52 107/110/52
f 107/110/52 84/109/52 85/124/52
f 84/127/51 107/130/51 102/108/51
f 102/108/51 83/107/51 84/127/51
f 71/131/54 105/133/54 104/132/54
f 104/132/54 70/127/54 71/131/54
f 72/112/51 100/136/51 105/135/51
f 105/135/51 71/134/51 72/112/51
f 70/137/53 104/139/53 103/138/53
f 103/138/53 69/101/53 70/137/53
f 73/140/54 101/141/54 100/133/54
f 100/133/54 72/131/54 73/140/54
f 74/115/51 98/116/51 101/136/51
f 101/136/51 73/112/51 74/115/51
f 75/80/54 99/77/54 98/141/54
f 98/141/54 74/140/54 75/80/54
f 76/49/51 96/74/51 99/116/51
f 99/116/51 75/115/51 76/49/51
f 77/79/54 95/78/54 96/77/54
f 96/77/54 76/80/54 77/79/54
f 78/101/51 94/103/51 95/74/51
f 95/74/51 77/49/51 78/101/51
f 79/60/52 93/63/52 94/62/52
f 94/62/52 78/61/52 79/60/52

